
<!-- made in editor copied in, it's gunna work  -->
<svg version="1.0" width="500.000000pt" height="250.000000pt" viewBox="0 0 500.000000 250.000000" preserveAspectRatio="xMidYMid meet" xmlns="http://www.w3.org/2000/svg">
  <defs></defs>
  <g transform="matrix(0.1, 0, 0, -0.1, -27.818836, 486.093781)" fill="#FF5A5F" stroke="none">
    <path d="M1382 3407 c-93 -19 -157 -123 -133 -215 13 -50 238 -515 272 -563
12 -17 42 -40 65 -51 56 -24 106 -13 151 34 19 20 84 140 160 293 113 232 128
267 131 320 4 76 -24 129 -86 163 -78 43 -165 27 -254 -49 l-48 -40 -65 51
c-37 27 -69 50 -73 50 -4 0 -23 4 -42 8 -19 5 -54 4 -78 -1z m102 -51 c37 -15
116 -82 116 -98 0 -5 -11 -24 -25 -42 -39 -52 -77 -143 -77 -190 -2 -111 117
-182 210 -126 97 59 93 167 -11 319 l-30 45 41 37 c52 46 100 69 144 69 79 0
144 -69 134 -143 -5 -41 -96 -240 -209 -455 -84 -161 -114 -185 -189 -146 -25
13 -50 57 -162 282 -125 255 -131 270 -131 328 0 48 5 67 20 84 42 47 109 61
169 36z m216 -229 c50 -100 37 -176 -35 -195 -45 -13 -92 4 -110 38 -26 51
-13 109 45 200 31 48 33 50 51 34 11 -9 32 -44 49 -77z"></path>
    <path d="M2546 3275 c-19 -20 -20 -26 -3 -49 27 -38 95 2 71 42 -15 23 -48 27
-68 7z"></path>
    <path d="M3300 3055 l0 -205 35 0 c31 0 35 3 35 25 l0 24 36 -24 c74 -50 162
-20 198 66 28 68 16 131 -34 181 -33 34 -43 38 -87 38 -35 0 -58 -6 -76 -20
-14 -11 -28 -20 -31 -20 -3 0 -6 32 -6 70 l0 70 -35 0 -35 0 0 -205z m221 19
c35 -37 33 -108 -5 -141 -38 -32 -80 -30 -117 6 -33 33 -38 75 -14 121 17 33
27 38 76 39 26 1 42 -6 60 -25z"></path>
    <path d="M2203 3140 c-43 -26 -63 -68 -63 -130 0 -126 110 -199 203 -136 l37
25 0 -24 c0 -22 4 -25 35 -25 l35 0 0 155 0 155 -35 0 c-28 0 -35 -4 -35 -20
0 -20 0 -20 -32 0 -42 25 -104 26 -145 0z m156 -66 c31 -39 29 -107 -4 -139
-56 -57 -145 -13 -145 70 0 63 29 95 85 95 35 0 48 -5 64 -26z"></path>
    <path d="M2540 3005 l0 -155 35 0 35 0 0 155 0 155 -35 0 -35 0 0 -155z"></path>
    <path d="M2700 3005 l0 -155 35 0 35 0 0 100 c0 113 14 140 70 140 28 0 30 3
30 35 0 44 -24 47 -69 9 l-31 -26 0 26 c0 23 -4 26 -35 26 l-35 0 0 -155z"></path>
    <path d="M2930 3005 l0 -155 35 0 35 0 0 108 c0 91 3 111 18 124 27 23 49 28
81 17 39 -14 51 -51 51 -160 l0 -89 36 0 36 0 -4 113 c-2 61 -10 124 -17 138
-28 57 -124 78 -175 38 l-26 -20 0 20 c0 17 -6 21 -35 21 l-35 0 0 -155z"></path>
    <path d="M3690 3005 l0 -155 35 0 35 0 0 108 c0 91 3 111 18 124 27 23 49 28
81 17 39 -14 51 -51 51 -160 l0 -89 36 0 36 0 -4 113 c-2 61 -10 124 -17 138
-28 57 -124 78 -175 38 l-26 -20 0 20 c0 17 -6 21 -35 21 l-35 0 0 -155z"></path>
  </g>
  <text style="white-space: pre; fill: rgb(255, 90, 95); font-family: system-ui; font-size: 9.5px; color: rgb(255,90,95);" x="129.651" y="184.212" transform="matrix(1.178098, 0, 0, 1.23595, -23.791328, -41.844925)">SS</text>
</svg>